<svg xmlns="http://www.w3.org/2000/svg" viewBox="0 0 282.7 62.8">
<path fill="#5B2580" d="M79.9,53.7c-0.5,3.7-4.2,6.8-8.3,7.3c-20.8,2.3-41.5,2.3-62.4,0c-4.2-0.6-7.9-3.7-8.3-7.3
	c-1.2-14.2-1.2-28.3,0-42.5c0.5-3.7,4.2-6.7,8.3-7.3c20.8-2.3,41.5-2.3,62.4,0c4.2,0.6,7.9,3.7,8.3,7.3
	C81.2,25.4,81.2,39.6,79.9,53.7z"/>
<path fill="#79B72B" d="M34.2,45.5c3.9-3.5,5.8-8,5.8-13.5c0-5.6-1.9-10.1-5.9-13.6c-3.9-3.5-8.7-5.3-14.5-5.3
	c-5.7,0-10.5,1.7-14.4,5.3c-2.6,2.4-4.4,5.3-5.2,8.6C0,30.3,0,33.6,0,36.9c0.8,3.3,2.6,6.2,5.3,8.6c3.9,3.4,8.7,5.1,14.5,5.1
	C25.5,50.6,30.3,48.9,34.2,45.5z M11.6,32c0-5.3,3.6-8.8,8.1-8.8c4.5,0,8.1,3.5,8.1,8.8c0,5.2-3.6,8.6-8.1,8.6
	C15.2,40.6,11.6,37.2,11.6,32z M80.3,49.1c-0.6,0.7-1.6,1.1-3,1.1h-4.4c-2.6,0-3.8-1.3-3.8-3.8V29.2c0-3.1-1.3-4.7-4-4.7
	c-5.1,0-7.8,4-7.8,9.5v12.4c0,2.6-1.3,3.8-3.8,3.8h-4.4c-2.6,0-3.8-1.3-3.8-3.8V18.2c0-2.6,1.3-3.8,3.8-3.8H53
	c2.5,0,3.8,1.3,3.8,3.8v0.6l-0.1,0.9h0.1c2.4-4.1,6.3-6.2,11.4-6.2c7,0,11.1,3,12.4,8.9C81,31.3,80.9,40.2,80.3,49.1z M87.4,4.3
	c0-2.6,1.3-3.8,3.8-3.8h4.4c2.6,0,3.8,1.3,3.8,3.8v32.1c0,2.2,0.7,3.3,2,3.5c1.9,0.2,2.8,1.3,2.8,3.3v3.4c0,2.6-1.3,3.9-3.9,3.9
	c-3.6,0-6-0.5-8.8-2.2c-2.7-1.7-4.2-5.6-4.2-11.3V4.3z M108.9,18.2c0-2.6,1.3-3.8,3.8-3.8h4.4c2.6,0,3.8,1.3,3.8,3.8v28.2
	c0,2.6-1.3,3.8-3.8,3.8h-4.4c-2.6,0-3.8-1.3-3.8-3.8V18.2z M128.1,18.2c0-2.6,1.3-3.8,3.8-3.8h3.9c2.5,0,3.8,1.3,3.8,3.8v0.6
	l-0.1,0.9h0.1c2.4-4.1,6.3-6.2,11.4-6.2c8.6,0,12.9,4.5,12.9,13.4v19.4c0,2.6-1.3,3.8-3.8,3.8h-4.4c-2.6,0-3.8-1.3-3.8-3.8V29.2
	c0-3.1-1.3-4.7-4-4.7c-5.1,0-7.8,4-7.8,9.5v12.4c0,2.6-1.3,3.8-3.8,3.8h-4.4c-2.6,0-3.8-1.3-3.8-3.8V18.2z M173.5,18.9
	c3.4-3.5,7.9-5.4,13.6-5.4c5.1,0,9.2,1.6,12.1,4.9c3,3.2,4.5,7.3,4.5,12.2c0,1.9-1.8,4-4,4h-18.8c0.8,4.2,4.2,6.4,8.3,6.4
	c2.2,0,4.3-0.6,6.5-1.7c2.4-1,4.1-0.6,5.1,1.5l1,1.8c1.2,2.3,0.8,4-1.3,5.2c-3.8,2.2-7.9,3.2-12.3,3.2c-6,0-10.8-1.9-14.4-5.6
	c-3.5-3.7-5.3-8.1-5.3-13.2C168.4,26.9,170.1,22.4,173.5,18.9z M191.7,27.7c0-3.1-1.9-5.4-4.9-5.4c-3.1,0-5,1.8-5.8,5.4H191.7z
	 M223.6,18.2c0-2.6,1.3-3.8,3.8-3.8h3.9c2.5,0,3.8,1.3,3.8,3.8v0.6l-0.1,0.9h0.1c2.4-4.1,6.3-6.2,11.4-6.2c8.6,0,12.9,4.5,12.9,13.4
	v19.4c0,2.6-1.3,3.8-3.8,3.8h-4.4c-2.6,0-3.8-1.3-3.8-3.8V29.2c0-3.1-1.3-4.7-4-4.7c-5.1,0-7.8,4-7.8,9.5v12.4
	c0,2.6-1.3,3.8-3.8,3.8h-4.4c-2.6,0-3.8-1.3-3.8-3.8V18.2z M265.8,4.3c0-2.6,1.3-3.8,3.8-3.8h4.4c2.6,0,3.8,1.3,3.8,3.8v32.1
	c0,2.2,0.7,3.3,2,3.5c1.9,0.2,2.8,1.3,2.8,3.3v3.4c0,2.6-1.3,3.9-3.9,3.9c-3.6,0-6-0.5-8.8-2.2c-2.7-1.7-4.2-5.6-4.2-11.3V4.3z
	 M212.6,39.5c2.8,0,5.1,2.3,5.1,5.1c0,2.8-2.3,5.1-5.1,5.1c-2.8,0-5.1-2.3-5.1-5.1C207.5,41.7,209.7,39.5,212.6,39.5 M114.9,0
	c2.8,0,5.1,2.3,5.1,5.1c0,2.8-2.3,5.1-5.1,5.1c-2.8,0-5.1-2.3-5.1-5.1C109.9,2.3,112.1,0,114.9,0"/>
</svg>
